<svg id="Layer_1" data-name="Layer 1" xmlns="http://www.w3.org/2000/svg" viewBox="0 0 570.5 589.27"><defs><style>.cls-1{fill:#f9fcfd;}</style></defs><path class="cls-1" d="M562.08,157.68l-82.65-7.87c-15.39-1.46-27.58-14.05-29-29.94l-7.61-85.34C440.45,8,410.23-4.95,390.38,12.09L326.54,66.9a31.29,31.29,0,0,1-41,0L221.61,12.05C201.76-5,171.55,8,169.18,34.5l-7.61,85.37c-1.42,15.89-13.61,28.48-29,29.94l-82.65,7.87c-25.69,2.45-38.21,33.65-21.73,54.15l53.11,66a34,34,0,0,1,0,42.34L28.23,386.16c-16.5,20.5-4,51.71,21.72,54.16l82.62,7.87c15.39,1.46,27.58,14.05,29,29.94l7.61,85.37c2.37,26.55,32.58,39.48,52.43,22.45l63.94-54.86a31.29,31.29,0,0,1,41,0l63.84,54.81c19.85,17,50.07,4.11,52.44-22.44l7.61-85.34c1.42-15.89,13.61-28.48,29-29.94l82.62-7.87c25.7-2.45,38.22-33.66,21.72-54.16l-53.06-65.94a34,34,0,0,1,0-42.34l53.11-66C600.29,191.33,587.77,160.13,562.08,157.68Z" transform="translate(-20.75 -4.37)"/></svg>