<svg id="Layer_1" data-name="Layer 1" xmlns="http://www.w3.org/2000/svg" viewBox="0 0 439.96 488.98"><defs><style>.cls-1{fill:#fff;}.cls-2{fill:none;stroke:#ee253d;stroke-miterlimit:10;stroke-width:1.41px;}</style></defs><path class="cls-1" d="M509.23,268.53a32.78,32.78,0,0,1,0,56.78L336.7,424.93,164.17,524.54c-21.86,12.62-49.18-3.16-49.18-28.4V97.7c0-25.24,27.32-41,49.18-28.4L336.7,168.91Z" transform="translate(-85.67 -64.86)"/><path class="cls-2" d="M502.62,239.79c23.53,9.11,28.39,40.28,8.73,56.12l-155.15,125-155.15,125c-19.65,15.83-49.08,4.45-53-20.49L117.43,328.51,86.78,131.66C82.9,106.72,107.47,86.93,131,96l185.8,71.88Z" transform="translate(-85.67 -64.86)"/></svg>