<svg id="Layer_1" data-name="Layer 1" xmlns="http://www.w3.org/2000/svg" xmlns:xlink="http://www.w3.org/1999/xlink" viewBox="0 0 291.17 249.41"><defs><style>.cls-1{fill:url(#linear-gradient);}</style><linearGradient id="linear-gradient" x1="616.63" y1="-8105.53" x2="907.8" y2="-8105.53" gradientTransform="translate(907.8 -7980.83) rotate(180)" gradientUnits="userSpaceOnUse"><stop offset="0" stop-color="#c02039"/><stop offset="0.17" stop-color="#931b38"/><stop offset="0.35" stop-color="#6c1736"/><stop offset="0.52" stop-color="#4c1335"/><stop offset="0.69" stop-color="#361135"/><stop offset="0.85" stop-color="#290f34"/><stop offset="1" stop-color="#240f34"/></linearGradient></defs><path class="cls-1" d="M11.64,136.3h235l-93.19,93.25a11.63,11.63,0,0,0,0,16.45h0a11.63,11.63,0,0,0,16.45,0L291.17,124.66,169.91,3.41a11.63,11.63,0,0,0-16.46,0h0a11.64,11.64,0,0,0,0,16.46L246.62,113h-235A11.64,11.64,0,0,0,0,124.67H0A11.64,11.64,0,0,0,11.64,136.3Z"/></svg>