<svg xmlns="http://www.w3.org/2000/svg" viewBox="0 0 293.62 347.18"><defs><style>.cls-1{fill:#fff;}</style></defs><g id="Layer_2" data-name="Layer 2"><g id="Layer_1-2" data-name="Layer 1"><path class="cls-1" d="M54.53,341.8c-11.55,7.08-26.25,7.29-37.61-.08l-1.29-.87a37.76,37.76,0,0,1-13-16.47A34.79,34.79,0,0,1,0,310.93v-280A24.78,24.78,0,0,1,2.73,19.42,35.84,35.84,0,0,1,19.3,3.27,36.07,36.07,0,0,1,42.4.91,24.6,24.6,0,0,1,50,4L277.71,143.51a33.31,33.31,0,0,1,15.91,28.4v4.45a33.32,33.32,0,0,1-15.88,28.38Z"/></g></g></svg>