<?xml version="1.0" encoding="UTF-8"?>
<svg id="Layer_2" data-name="Layer 2" xmlns="http://www.w3.org/2000/svg" viewBox="0 0 831.5 825">
  <defs>
    <style>
      .cls-1 {
        opacity: .5;
      }

      .cls-2 {
        fill: #fff;
        stroke-width: 0px;
      }
    </style>
  </defs>
  <g id="Layer_1-2" data-name="Layer 1">
    <g>
      <path class="cls-2" d="M19.49,825c-4.26,0-8.54-1.39-12.13-4.25-8.43-6.71-9.82-18.98-3.11-27.4l302.87-380.41L6.19,31.58C-.48,23.13.97,10.86,9.42,4.19c8.45-6.67,20.72-5.23,27.39,3.23l310.5,393.5c5.61,7.11,5.59,17.14-.05,24.23L34.76,817.65c-3.85,4.83-9.53,7.35-15.27,7.35Z"/>
      <path class="cls-2" d="M260.49,825c-4.26,0-8.54-1.39-12.13-4.25-8.43-6.71-9.82-18.98-3.11-27.4l302.87-380.41L247.19,31.58c-6.67-8.45-5.23-20.72,3.23-27.39,8.45-6.67,20.72-5.23,27.39,3.23l310.5,393.5c5.61,7.11,5.59,17.14-.05,24.23l-312.5,392.5c-3.85,4.83-9.53,7.35-15.27,7.35Z"/>
      <g class="cls-1">
        <path class="cls-2" d="M499.49,825c-4.26,0-8.54-1.39-12.13-4.25-8.42-6.71-9.82-18.98-3.11-27.4l302.87-380.41L486.19,31.58c-6.67-8.45-5.23-20.72,3.23-27.39,8.45-6.67,20.71-5.23,27.39,3.23l310.5,393.5c5.61,7.11,5.59,17.14-.05,24.23l-312.5,392.5c-3.85,4.83-9.53,7.35-15.27,7.35Z"/>
      </g>
    </g>
  </g>
</svg>